{
  "accessors": [
    {
      "name": "Archmodels_112_098_005_1_0_positions",
      "componentType": 5126,
      "count": 5596,
      "min": [
        -83.35449981689453,
        0,
        -41.19810104370117
      ],
      "max": [
        81.04550170898438,
        56,
        32.80189895629883
      ],
      "type": "VEC3",
      "bufferView": 0,
      "byteOffset": 0
    },
    {
      "name": "Archmodels_112_098_005_1_0_normals",
      "componentType": 5126,
      "count": 5596,
      "min": [
        -1,
        -1,
        -1
      ],
      "max": [
        1,
        1,
        1
      ],
      "type": "VEC3",
      "bufferView": 1,
      "byteOffset": 0
    },
    {
      "name": "Archmodels_112_098_005_1_0_texcoords",
      "componentType": 5126,
      "count": 5596,
      "min": [
        0.13009999692440033,
        -0.32190001010894775
      ],
      "max": [
        0.8698999881744385,
        1.3219000101089478
      ],
      "type": "VEC2",
      "bufferView": 2,
      "byteOffset": 0
    },
    {
      "name": "Archmodels_112_098_005_1_0_indices",
      "componentType": 5123,
      "count": 26916,
      "min": [
        0
      ],
      "max": [
        5595
      ],
      "type": "SCALAR",
      "bufferView": 3,
      "byteOffset": 0
    },
    {
      "name": "Archmodels_112_098_003_1_0_positions",
      "componentType": 5126,
      "count": 25695,
      "min": [
        -83.65450286865234,
        14,
        -41.49810028076172
      ],
      "max": [
        81.34549713134766,
        76,
        40.50189971923828
      ],
      "type": "VEC3",
      "bufferView": 0,
      "byteOffset": 67152
    },
    {
      "name": "Archmodels_112_098_003_1_0_normals",
      "componentType": 5126,
      "count": 25695,
      "min": [
        -1,
        -1,
        -1
      ],
      "max": [
        1,
        1,
        1
      ],
      "type": "VEC3",
      "bufferView": 1,
      "byteOffset": 67152
    },
    {
      "name": "Archmodels_112_098_003_1_0_texcoords",
      "componentType": 5126,
      "count": 25695,
      "min": [
        -4.222700119018555,
        -1.1813000440597534
      ],
      "max": [
        6.224100112915039,
        2.9419000148773193
      ],
      "type": "VEC2",
      "bufferView": 2,
      "byteOffset": 44768
    },
    {
      "name": "Archmodels_112_098_003_1_0_indices",
      "componentType": 5123,
      "count": 143484,
      "min": [
        0
      ],
      "max": [
        25694
      ],
      "type": "SCALAR",
      "bufferView": 3,
      "byteOffset": 53832
    }
  ],
  "asset": {
    "generator": "obj2gltf",
    "version": "2.0"
  },
  "buffers": [
    {
      "name": "112_098",
      "byteLength": 1342112,
      "uri": "data:application/octet-stream;base64,"
    }
  ],
  "bufferViews": [
    {
      "name": "bufferView_0",
      "buffer": 0,
      "byteLength": 375492,
      "byteOffset": 0,
      "byteStride": 12,
      "target": 34962
    },
    {
      "name": "bufferView_1",
      "buffer": 0,
      "byteLength": 375492,
      "byteOffset": 375492,
      "byteStride": 12,
      "target": 34962
    },
    {
      "name": "bufferView_2",
      "buffer": 0,
      "byteLength": 250328,
      "byteOffset": 750984,
      "byteStride": 8,
      "target": 34962
    },
    {
      "name": "bufferView_3",
      "buffer": 0,
      "byteLength": 340800,
      "byteOffset": 1001312,
      "target": 34963
    }
  ],
  "materials": [
    {
      "name": "Material__26",
      "pbrMetallicRoughness": {
        "baseColorFactor": [
          0.588,
          0.588,
          0.588,
          1
        ],
        "metallicFactor": 0,
        "roughnessFactor": 0.99
      },
      "emissiveFactor": [
        0,
        0,
        0
      ],
      "alphaMode": "OPAQUE",
      "doubleSided": false
    },
    {
      "name": "Material__25",
      "pbrMetallicRoughness": {
        "baseColorFactor": [
          0.588,
          0.588,
          0.588,
          1
        ],
        "metallicFactor": 0,
        "roughnessFactor": 0.99
      },
      "emissiveFactor": [
        0,
        0,
        0
      ],
      "alphaMode": "OPAQUE",
      "doubleSided": false
    }
  ],
  "meshes": [
    {
      "name": "Archmodels_112_098_005_1",
      "primitives": [
        {
          "attributes": {
            "POSITION": 0,
            "NORMAL": 1,
            "TEXCOORD_0": 2
          },
          "indices": 3,
          "material": 0,
          "mode": 4
        }
      ]
    },
    {
      "name": "Archmodels_112_098_003_1",
      "primitives": [
        {
          "attributes": {
            "POSITION": 4,
            "NORMAL": 5,
            "TEXCOORD_0": 6
          },
          "indices": 7,
          "material": 1,
          "mode": 4
        }
      ]
    }
  ],
  "nodes": [
    {
      "name": "Archmodels_112_098_005",
      "mesh": 0
    },
    {
      "name": "Archmodels_112_098_003",
      "mesh": 1
    }
  ],
  "scene": 0,
  "scenes": [
    {
      "nodes": [
        0,
        1
      ]
    }
  ]
}
